<svg version="1.1" id="Layer_1" xmlns="http://www.w3.org/2000/svg" xmlns:xlink="http://www.w3.org/1999/xlink" x="0px" y="0px"
	 width="100%" viewBox="0 0 512 512" enable-background="new 0 0 512 512" xml:space="preserve">
<path fill="#000000" opacity="1.000000" stroke="none"
	d="
M114.954529,369.968567
	C119.189186,382.781219 128.407623,389.734039 140.764664,393.319641
	C140.606445,393.705505 140.448212,394.091400 140.289993,394.477295
	C97.802605,394.477295 55.315220,394.477295 12.827832,394.477295
	C17.223953,391.061279 22.304958,389.559357 26.465685,386.159454
	C38.040836,376.701050 42.681755,363.933014 43.635433,349.742096
	C45.782639,317.791260 44.400486,285.779266 44.532120,253.794952
	C44.741314,202.964417 44.591759,152.132401 44.601486,101.301010
	C44.603592,90.299515 44.545116,79.276344 42.132427,68.489441
	C38.386127,51.740105 28.879482,40.037933 11.900031,35.216114
	C11.426615,35.081676 10.951063,34.891109 10.538815,34.628792
	C10.291425,34.471375 10.165074,34.123737 9.924106,33.774254
	C10.833084,32.030304 12.515554,32.716190 13.834517,32.711796
	C31.500187,32.652939 49.166435,32.595230 66.831795,32.684174
	C76.768257,32.734200 84.721130,36.739552 90.923431,44.693844
	C125.862022,89.501717 160.913086,134.221909 195.938370,178.962143
	C197.252457,180.640747 198.391846,182.521729 200.847107,183.917603
	C204.251678,180.328705 207.738602,176.829254 211.030609,173.155182
	C240.273727,140.518143 269.690491,108.033272 298.630493,75.129272
	C319.090057,51.867317 344.705048,39.000946 375.033264,34.686726
	C401.570587,30.911757 428.262268,33.311932 454.876923,32.649372
	C462.704376,32.454514 470.542175,32.621529 478.374146,32.713593
	C479.904755,32.731586 481.652863,32.048515 483.001556,33.519253
	C482.338287,35.406929 480.596924,35.142246 479.266846,35.563438
	C465.236328,40.006458 456.416962,50.796329 456.286102,65.477730
	C455.934052,104.971451 455.994293,144.469162 455.961517,183.965347
	C455.921295,232.463226 455.925720,280.961212 455.962524,329.459106
	C455.988037,363.080048 472.506989,383.922668 505.376465,391.978302
	C506.948212,392.363495 508.503082,392.817291 510.133606,393.257446
	C509.519440,395.743561 507.715240,394.975250 506.445496,394.976654
	C455.780853,395.032684 405.114532,395.285065 354.452393,394.933960
	C335.223267,394.800659 316.683075,390.650543 300.337921,379.779633
	C277.443024,364.552612 265.052551,342.561157 260.760071,315.865204
	C249.976105,248.797104 302.264282,196.845474 355.907257,189.555252
	C368.995819,187.776489 382.194794,188.570312 395.220612,186.687515
	C408.646088,184.746933 420.859344,180.429626 428.570740,168.198608
	C432.141235,162.535553 434.023468,156.270203 435.123108,148.345856
	C431.766083,151.298157 429.573273,153.533173 427.082245,155.362076
	C418.221100,161.868042 408.211304,165.188965 397.232178,165.266571
	C381.581543,165.377182 365.891296,164.812027 350.469574,168.266846
	C345.638672,169.349060 340.882416,170.764221 335.699188,172.130524
	C335.409180,169.394958 337.329681,168.378098 338.643524,167.135132
	C350.344208,156.065552 364.583954,149.170303 379.051544,142.654205
	C391.199158,137.182999 403.601868,132.172623 414.035522,123.562859
	C421.426361,117.463974 426.909912,110.183815 428.854858,100.521370
	C430.861389,90.553192 427.992493,82.054733 421.301575,74.780373
	C413.350189,66.135597 402.966919,62.150517 391.621307,60.849525
	C372.961456,58.709824 355.023773,60.781822 338.947083,71.606010
	C329.970459,77.649841 322.509430,89.336639 322.065552,98.109993
	C324.400818,98.054520 325.374603,96.057762 326.764862,94.773186
	C337.672058,84.695190 350.180847,78.812302 365.332611,80.745667
	C373.480133,81.785294 380.985107,84.619614 385.011993,92.651268
	C388.870728,100.347595 386.273407,107.235092 381.808838,113.699974
	C376.275848,121.712006 368.309723,127.018539 360.345734,132.173035
	C342.172424,143.935211 323.144196,154.397339 306.232147,168.064865
	C284.739105,185.434586 264.767029,204.288132 250.384750,228.178802
	C227.630707,265.975983 227.589020,304.393951 248.149841,343.135925
	C248.876846,344.505829 250.469116,345.612457 249.911194,347.529358
	C248.382721,347.958832 247.778366,346.757172 247.011353,346.000671
	C233.724869,332.895782 220.674179,319.542267 207.114456,306.727173
	C197.692520,297.822693 190.383408,287.316681 182.678772,277.082397
	C161.230804,248.592468 139.868988,220.037659 118.436104,191.536346
	C117.096306,189.754684 116.094032,187.431320 113.371506,187.148361
	C111.742592,188.693359 112.334831,190.648026 112.333557,192.385681
	C112.294365,246.050247 112.279617,299.714874 112.332031,353.379395
	C112.337402,358.878784 113.089317,364.330688 114.954529,369.968567
M294.210144,262.718536
	C285.995728,280.366241 285.013702,298.514038 290.240326,317.168579
	C300.104156,352.373779 338.465973,375.342987 373.700684,367.054901
	C426.400208,354.658661 448.031982,289.181488 412.988983,247.445602
	C395.055847,226.087387 371.913696,216.999527 344.377930,222.590652
	C321.480377,227.239990 304.905640,241.008759 294.210144,262.718536
z"/>
<path fill="#000000" opacity="1.000000" stroke="none"
	d="
M376.790161,435.137329
	C377.025574,425.331451 380.192261,422.040039 389.462921,421.946655
	C400.781647,421.832611 412.104950,421.769775 423.421265,421.968811
	C430.631805,422.095612 434.357758,425.603088 434.328003,431.589508
	C434.319244,433.355316 434.725128,435.690704 432.210693,435.979004
	C429.738922,436.262390 426.426819,437.567047 425.153961,434.296082
	C424.126862,431.656647 422.591888,431.242706 420.244446,431.253265
	C410.589386,431.296722 400.932556,431.364166 391.279236,431.223816
	C384.200836,431.120941 386.892914,436.350555 386.470184,439.774841
	C385.995361,443.621063 388.121613,444.417358 391.670258,444.320953
	C401.651031,444.049713 411.646393,443.971558 421.628418,444.180328
	C432.055145,444.398315 435.626526,448.630768 434.734650,458.970245
	C434.691772,459.467316 434.579102,459.959137 434.548920,460.456421
	C433.683136,474.720520 432.975891,475.387329 418.589630,475.385986
	C407.935516,475.385010 397.280701,475.442352 386.627563,475.337646
	C380.302399,475.275513 376.702759,471.476929 376.730103,465.369385
	C376.739929,463.170105 377.058197,461.200684 379.740295,461.132141
	C382.079254,461.072357 385.340698,459.915222 386.067535,463.279755
	C386.831421,466.815918 389.046753,466.721863 391.609161,466.719330
	C400.931519,466.710083 410.261688,466.488861 419.573242,466.806763
	C424.958252,466.990631 424.952911,463.875244 424.883545,460.094818
	C424.817535,456.496643 425.339203,453.069794 419.743652,453.247040
	C409.765503,453.563080 399.769958,453.342682 389.781738,453.323364
	C379.790375,453.304047 376.826843,450.276398 376.787994,440.102081
	C376.782257,438.603790 376.789032,437.105469 376.790161,435.137329
z"/>
<path fill="#000000" opacity="1.000000" stroke="none"
	d="
M155.690231,441.019470
	C155.688766,423.516876 157.250397,421.944824 174.159607,421.927277
	C184.652313,421.916382 195.145309,421.852203 205.637665,421.907806
	C215.680771,421.960999 219.244888,425.538025 219.270966,435.445374
	C219.295090,444.605652 219.325531,453.766449 219.253876,462.926239
	C219.182861,472.005768 215.858139,475.361481 206.954773,475.385834
	C193.797333,475.421783 180.639587,475.417511 167.482178,475.371918
	C159.081619,475.342834 155.779694,472.008606 155.707672,463.500244
	C155.645630,456.172424 155.692001,448.843750 155.690231,441.019470
M165.779785,433.361023
	C165.095734,443.155853 166.512192,452.955292 165.627014,462.768097
	C165.337341,465.979492 167.882965,466.728546 170.745712,466.713898
	C181.736908,466.657593 192.730270,466.594788 203.719269,466.765167
	C207.647964,466.826050 209.073853,465.239777 209.016052,461.447876
	C208.889114,453.122925 208.869370,444.792969 209.013168,436.468689
	C209.079834,432.609222 207.565262,431.148743 203.689102,431.202972
	C192.699799,431.356720 181.706772,431.235077 170.715302,431.255646
	C169.087860,431.258667 167.319153,430.979462 165.779785,433.361023
z"/>
<path fill="#000000" opacity="1.000000" stroke="none"
	d="
M40.592484,474.804932
	C31.791033,475.945557 31.745058,475.903839 31.741400,467.673584
	C31.735552,454.515503 31.684822,441.357147 31.760836,428.199554
	C31.773273,426.046173 30.735083,423.047516 33.888798,422.263397
	C37.153702,421.451691 40.389900,421.497284 42.984306,424.572418
	C49.640793,432.462433 56.473732,440.203674 63.250156,447.992218
	C64.541336,449.476227 65.580406,451.251221 68.212990,452.246490
	C73.240372,446.368591 78.399895,440.342163 83.552383,434.309723
	C86.364014,431.017883 89.205811,427.750397 91.953018,424.405457
	C93.597305,422.403381 95.666519,421.853668 98.148064,421.882812
	C101.024376,421.916656 102.368423,423.009277 102.350868,426.053711
	C102.264435,441.043427 102.236336,456.034241 102.334129,471.023743
	C102.358154,474.706360 100.541870,475.391815 97.357178,475.442017
	C93.784058,475.498352 92.731857,473.922272 92.764755,470.619385
	C92.867386,460.314606 92.802406,450.008209 92.802406,438.046448
	C87.713127,444.010284 83.582787,448.825653 79.481003,453.665222
	C76.466660,457.221802 73.382790,460.727325 70.531242,464.411438
	C68.395355,467.170868 66.830566,466.882263 64.690674,464.346375
	C57.616524,455.963348 50.375095,447.721436 42.463955,438.576996
	C40.039639,451.181549 42.553566,462.975281 40.592484,474.804932
z"/>
<path fill="#000000" opacity="1.000000" stroke="none"
	d="
M272.320557,421.982361
	C286.616608,421.943909 300.444458,421.876465 314.271423,421.954681
	C324.232788,422.011017 327.303253,425.227753 327.315125,435.233856
	C327.318298,437.899414 327.332489,440.565155 327.308075,443.230499
	C327.234711,451.247528 323.843109,454.748413 315.796600,455.063019
	C313.706818,455.144714 311.611115,455.075317 309.118835,456.201385
	C315.633362,462.107788 322.147888,468.014191 328.662445,473.920593
	C328.418579,474.330078 328.174683,474.739532 327.930817,475.149017
	C321.469086,475.204437 314.938049,476.999146 309.440399,470.674530
	C305.210999,465.808929 299.892578,461.890472 295.062592,457.546173
	C293.552704,456.188141 291.974792,454.973419 289.798676,455.025818
	C286.076141,455.115448 285.590485,452.865845 285.628082,449.782715
	C285.672913,446.104492 288.001434,445.891144 290.660980,445.889984
	C297.657990,445.886902 304.660156,445.738647 311.650116,445.963623
	C316.031372,446.104645 318.368591,444.775970 317.774872,440.008820
	C317.590942,438.532074 317.688812,437.011505 317.750366,435.514801
	C317.869507,432.619232 316.639374,431.230072 313.629150,431.247009
	C303.133942,431.306030 292.637512,431.333832 282.143066,431.225250
	C278.438721,431.186951 278.286682,433.424591 278.296600,436.151550
	C278.337128,447.313416 278.232117,458.476471 278.358734,469.637054
	C278.400696,473.338226 277.826080,475.547607 273.243439,475.494080
	C268.680817,475.440704 268.659882,472.917145 268.672302,469.669250
	C268.726562,455.508667 268.692566,441.347748 268.696014,427.186951
	C268.696594,424.829498 268.465698,422.314362 272.320557,421.982361
z"/>
<path fill="#000000" opacity="1.000000" stroke="none"
	d="
M478.308472,434.793335
	C482.590607,434.812958 486.418030,434.826996 490.245483,434.840790
	C492.126862,434.847595 493.580353,435.457916 493.611267,437.616425
	C493.643646,439.875793 492.078461,440.294464 490.237396,440.292755
	C483.580750,440.286530 476.923889,440.252136 470.267578,440.297974
	C467.789276,440.315033 466.795898,439.282135 466.595703,436.747833
	C465.966797,428.787170 467.445160,426.702698 475.350433,425.315674
	C478.296539,424.798767 481.262848,424.395538 484.222137,423.955566
	C485.974457,423.695038 487.582886,423.243378 487.514404,421.015869
	C487.444550,418.743500 485.778900,418.248627 484.024658,418.455566
	C479.760559,418.958618 475.041046,416.872803 471.326263,420.830688
	C470.446228,421.768341 468.745117,421.602936 467.595032,420.735962
	C466.541473,419.941803 466.641602,418.654846 466.887848,417.504517
	C467.551544,414.404083 469.783844,413.097473 472.691406,413.015411
	C477.346649,412.883972 482.011383,412.866089 486.666077,413.004211
	C491.041992,413.134094 493.259644,415.455170 493.396057,419.957184
	C493.596954,426.587433 492.498016,428.440704 487.193420,429.315979
	C483.587158,429.911011 479.951660,430.334930 476.355042,430.979340
	C474.851562,431.248779 472.812866,431.078583 472.800690,433.603699
	C474.145966,435.421112 476.150391,434.491699 478.308472,434.793335
z"/>
</svg>
